HIERARCHY
ROOT hip
{
	OFFSET 0.000000 0.000000 0.000000 
	CHANNELS 6 Xposition Yposition Zposition Xrotation Zrotation Yrotation
	JOINT abdomen
	{
		OFFSET 0.000000 3.402643 0.000000 
		CHANNELS 3 Xrotation Zrotation Yrotation
		JOINT chest
		{
			OFFSET 0.000000 8.438565 -0.680529 
			CHANNELS 3 Xrotation Zrotation Yrotation
			JOINT neck
			{
				OFFSET 0.000000 10.207942 -0.272212 
				CHANNELS 3 Xrotation Zrotation Yrotation
				JOINT head
				{
					OFFSET 0.000000 3.130431 0.000000 
					CHANNELS 3 Xrotation Zrotation Yrotation
					End Site
					{
						OFFSET 0.000000 3.130435 0.000000 
					}
				}
			}
			JOINT lCollar
			{
				OFFSET 3.470700 6.669187 -0.816635 
				CHANNELS 3 Yrotation Zrotation Xrotation
				JOINT lShldr
				{
					OFFSET 3.198488 0.000000 0.000000 
					CHANNELS 3 Zrotation Yrotation Xrotation
					JOINT lForeArm
					{
						OFFSET 10.139888 0.000000 0.000000 
						CHANNELS 3 Yrotation Zrotation Xrotation
						JOINT lHand
						{
							OFFSET 8.370511 0.000000 0.000000 
							CHANNELS 3 Zrotation Yrotation Xrotation
							End Site
							{
								OFFSET 4.083176 0.000000 0.000000 
							}
						}
					}
				}
			}
			JOINT rCollar
			{
				OFFSET -3.470700 6.669187 -0.816635 
				CHANNELS 3 Yrotation Zrotation Xrotation
				JOINT rShldr
				{
					OFFSET -3.198488 0.000000 0.000000 
					CHANNELS 3 Zrotation Yrotation Xrotation
					JOINT rForeArm
					{
						OFFSET -10.139888 0.000000 0.000000 
						CHANNELS 3 Yrotation Zrotation Xrotation
						JOINT rHand
						{
							OFFSET -8.370511 0.000000 0.000000 
							CHANNELS 3 Zrotation Yrotation Xrotation
							End Site
							{
								OFFSET -4.083176 0.000000 0.000000 
							}
						}
					}
				}
			}
		}
	}
	JOINT lThigh
	{
		OFFSET 5.308129 -1.633274 1.361059 
		CHANNELS 3 Xrotation Zrotation Yrotation
		JOINT lShin
		{
			OFFSET -2.041588 -20.007561 0.000000 
			CHANNELS 3 Xrotation Zrotation Yrotation
			JOINT lFoot
			{
				OFFSET 0.000000 -19.190928 -1.224953 
				CHANNELS 3 Xrotation Yrotation Zrotation
				End Site
				{
					OFFSET 0.000000 -2.449906 4.627600 
				}
			}
		}
	}
	JOINT rThigh
	{
		OFFSET -5.308129 -1.633274 1.361059 
		CHANNELS 3 Xrotation Zrotation Yrotation
		JOINT rShin
		{
			OFFSET 2.041588 -20.007561 0.000000 
			CHANNELS 3 Xrotation Zrotation Yrotation
			JOINT rFoot
			{
				OFFSET 0.000000 -19.190928 -1.224953 
				CHANNELS 3 Xrotation Yrotation Zrotation
				End Site
				{
					OFFSET 0.000000 -2.449906 4.627600 
				}
			}
		}
	}
}
MOTION
Frames: 11
Frame Time: 0.033333
-26.053284 42.833797 103.836197 -2.380949 8.703532 89.084061 30.206938 0.748765 1.060465 -20.839844 -0.007467 -0.001337 17.378103 2.441789 8.022870 -5.806170 -1.925131 0.391980 -6.249050 -0.109138 -0.001707 -52.714375 15.230718 6.516754 -42.307278 -29.594267 41.167458 7.621689 -3.440378 18.755447 3.250129 0.108978 -0.003601 83.527374 -42.326622 -31.866442 91.260361 1.032330 31.054903 45.686321 12.733141 53.848888 16.365177 8.493880 -21.520805 -1.129834 22.227125 -5.847062 22.691187 45.478008 -40.765228 -0.957401 -12.985674 -3.664990 22.319069 0.477124 0.787106 -4.570234 -6.754506 14.428192 
-26.154831 43.126949 103.973343 -1.724745 7.750436 89.875565 29.787111 -0.975975 1.608907 -20.839844 -0.007467 -0.001337 16.463762 3.253028 6.957819 -5.806170 -1.925131 0.391980 -6.249050 -0.109138 -0.001707 -60.416874 10.994413 10.447965 -24.483070 -21.357569 50.203190 10.695198 -4.755586 16.581507 3.250129 0.108978 -0.003601 89.735077 -39.540764 -31.256718 80.005150 0.418891 35.518829 41.808750 12.124398 59.317619 14.518845 9.800840 -20.472059 -1.803774 20.140404 -8.554210 21.915791 40.417271 -40.950623 -0.595814 -13.257010 -3.845692 19.862808 -0.108972 0.881074 -4.203716 -6.549335 16.354904 
-26.285706 43.034283 104.096893 -1.121388 6.893223 91.174957 29.880999 -2.919109 1.915800 -20.839844 -0.007467 -0.001337 14.669624 4.813611 5.503359 -5.806170 -1.925131 0.391980 -6.249050 -0.109138 -0.001707 -67.255791 6.254623 1.054483 -5.655996 -14.589670 45.904778 10.924376 -8.759102 27.713238 3.250129 0.108978 -0.003601 94.278229 -33.761356 -29.320374 65.742241 -2.458304 38.998890 35.032516 10.971700 64.445435 11.363298 10.013351 -20.982637 1.262164 19.799717 -11.831456 17.808775 36.985935 -40.056999 -1.044763 -13.615243 -3.946046 19.783295 -0.228053 0.869272 -6.302272 -6.957411 15.975165 
-26.428619 42.505039 104.205261 -0.776243 6.347078 92.414703 30.268635 -4.301934 2.576444 -20.839844 -0.007467 -0.001337 12.612617 6.687848 3.577078 -5.806170 -1.925131 0.391980 -6.249050 -0.109138 -0.001707 -72.976059 3.284406 -1.211541 2.039734 -6.203945 35.402199 8.862462 -9.163401 23.024490 3.250129 0.108978 -0.003601 95.765373 -27.563353 -25.938705 50.589542 -3.859947 39.657600 24.518192 8.977789 65.918488 9.421171 9.595479 -22.746187 4.108302 21.112822 -14.658469 11.183590 37.386734 -36.925972 -3.085238 -13.675398 -3.441255 23.679459 -0.341961 0.894912 -11.300097 -8.081409 12.916386 
-26.564720 41.742847 104.237717 -0.932444 5.760961 93.354134 30.811588 -4.285616 4.230415 -20.839844 -0.007467 -0.001337 10.021103 7.277026 1.289198 -5.806170 -1.925131 0.391980 -6.249050 -0.109138 -0.001707 -76.048882 1.904545 -3.390636 2.044584 -4.463327 22.713779 6.135798 -7.455789 12.568041 3.250129 0.108978 -0.003601 94.948250 -22.484980 -21.738291 38.205986 -2.793044 38.113209 12.111014 5.439145 61.703991 8.905609 9.099556 -24.048077 5.208199 23.579517 -15.894248 5.063663 39.491261 -34.292088 -6.531639 -13.120880 -2.199502 29.631508 -1.376707 1.171421 -14.369098 -9.666502 14.562696 
-26.675171 41.255474 104.100555 -1.970237 4.948259 94.732971 31.126173 -2.536715 6.595366 -20.839844 -0.007467 -0.001337 7.607815 6.019977 -1.395730 -5.806170 -1.925131 0.391980 -6.249050 -0.109138 -0.001707 -77.652229 0.810891 -5.920728 -2.148939 -6.818758 13.563166 4.862217 -6.005050 6.608579 3.250129 0.108978 -0.003601 94.619263 -19.803076 -19.110079 33.932804 -1.704260 34.460228 2.633136 -1.576296 53.923733 8.218863 8.909403 -23.672840 5.242778 26.939453 -16.438534 2.201661 39.408085 -34.678501 -8.637378 -10.882190 0.001685 32.477169 -2.909770 0.425208 -15.484090 -12.808002 15.741818 
-26.781967 41.257046 103.867081 -2.870401 4.554850 97.965942 31.159464 -0.417612 7.698281 -20.839844 -0.007467 -0.001337 6.716050 5.374862 -4.967635 -5.806170 -1.925131 0.391980 -6.249050 -0.109138 -0.001707 -79.807404 -1.414159 -5.258500 -6.391139 -7.881821 11.678886 5.258265 -5.168995 5.784839 3.250129 0.108978 -0.003601 95.503540 -18.262691 -18.597130 34.843681 -1.894091 27.909576 -2.749501 -8.042713 45.238274 6.591712 9.051392 -23.198225 4.885264 28.452570 -17.915091 1.946969 37.169960 -35.019360 -7.797872 -9.135235 1.386691 31.327171 -3.569387 -1.223362 -14.492971 -16.243690 16.956289 
-26.908653 41.493145 103.694855 -1.871674 4.753334 102.960617 30.867357 -0.367471 5.887003 -20.839844 -0.007467 -0.001337 7.457838 7.552557 -8.960235 -5.806170 -1.925131 0.391980 -6.249050 -0.109138 -0.001707 -81.965454 -4.580008 -0.753032 -8.164465 -6.835847 16.358555 6.038357 -5.441063 7.543331 3.250129 0.108978 -0.003601 96.606865 -17.564737 -19.263132 35.803276 -2.828761 23.463072 -2.442246 -8.749222 40.872520 3.379222 8.572201 -22.080530 6.264065 26.091436 -17.886234 0.594145 33.036350 -32.877769 -5.281378 -11.031081 -0.819305 29.490507 -2.119066 -2.898344 -13.775128 -16.813238 17.113258 
-27.052612 41.669033 103.587021 0.166534 4.521466 107.152527 30.403244 -2.468439 2.771954 -20.839844 -0.007467 -0.001337 8.514089 11.673965 -12.148216 -5.806170 -1.925131 0.391980 -6.249050 -0.109138 -0.001707 -83.097275 -7.482899 5.107986 -8.267259 -6.976398 25.324516 7.293136 -6.696102 11.662486 3.250129 0.108978 -0.003601 97.349983 -19.317877 -20.394844 39.054359 -3.079751 24.918804 3.453573 -5.297035 42.644890 2.060511 6.491492 -23.333920 7.473459 25.875919 -15.629498 0.836141 35.621960 -30.747435 -3.426463 -14.259421 -4.353005 28.710161 -0.898374 -3.958715 -13.638683 -15.677788 17.234665 
-27.179298 41.593128 103.405380 1.018320 4.169266 107.906586 30.724087 -4.391783 1.252097 -20.839844 -0.007467 -0.001337 8.330379 15.004933 -13.548168 -5.806170 -1.925131 0.391980 -6.249050 -0.109138 -0.001707 -83.424057 -11.351078 10.363571 -6.591835 -9.328446 33.990013 8.305639 -7.630243 16.625387 3.250129 0.108978 -0.003601 96.345383 -22.645208 -21.383806 47.370846 -2.107541 29.913012 11.969419 0.346230 47.714005 2.392841 5.789860 -24.718864 8.051228 26.655029 -12.046350 4.710987 41.963997 -33.271755 -4.402826 -15.051423 -4.783755 30.525099 -2.001834 -4.073562 -14.092378 -15.762091 16.130037 
-27.283997 41.260189 103.072937 0.528919 4.423640 105.178146 32.302620 -5.262699 0.899760 -20.839844 -0.007467 -0.001337 6.740114 16.961056 -12.477168 -5.806170 -1.925131 0.391980 -6.249050 -0.109138 -0.001707 -84.686409 -16.861694 15.532778 -2.022577 -9.796089 40.076061 7.822985 -7.881387 20.523510 3.250129 0.108978 -0.003601 93.366539 -26.156878 -21.597538 61.894444 0.717322 31.985035 21.073431 4.890645 48.787888 2.509863 6.589072 -23.623293 10.609875 26.315825 -7.815364 8.740291 44.925735 -38.989952 -6.559300 -14.015929 -2.469982 32.814137 -3.720251 -2.919280 -14.542714 -16.751736 16.025595 
